<svg width="275" height="413" viewBox="0 0 275 413" fill="none" xmlns="http://www.w3.org/2000/svg">
<path d="M185.191 0.132553L232.46 13.4549L264.792 74.2891C264.792 79.1433 230.957 124.989 224.945 135.028L189.376 196.267L89.1803 95.8759C80.1274 86.7579 157.488 -3.93187 185.191 0.132553Z" fill="url(#paint0_linear_273_2)"/>
<path d="M1.38898 264.587L148.031 400.653C165.374 415.537 195.143 416.089 213.374 401.866L257.086 367.544C265.43 360.104 270.199 352.282 270.199 342.939L274.966 97.9619L227.374 176.769L127.178 75.374L191.804 318.319C167.37 329.757 -17.7793 248.136 1.38898 264.587Z" fill="url(#paint1_linear_273_2)"/>
<defs>
<linearGradient id="paint0_linear_273_2" x1="677.4" y1="155.101" x2="602.914" y2="-73.4459" gradientUnits="userSpaceOnUse">
<stop stop-color="#A41B59"/>
<stop offset="0.899038" stop-color="#673AB7"/>
</linearGradient>
<linearGradient id="paint1_linear_273_2" x1="69.8172" y1="361.092" x2="308.181" y2="68.8564" gradientUnits="userSpaceOnUse">
<stop stop-color="#FE9E58"/>
<stop offset="0.396099" stop-color="#D361A5" stop-opacity="0.8"/>
<stop offset="1" stop-color="#673AB7" stop-opacity="0.7"/>
</linearGradient>
</defs>
</svg>
